# xmcd
#
# Track frame offsets:
#   150
#   19532
#   38190
#   55222
#   77335
#   100530
#   122010
#   138137
#   155555
#   178945
#   203410
#   230560
#
# Disc length: 3382 seconds
#
# Revision: 0
# Processed by: cddbd v1.5.1PL2 Copyright (c) Steve Scherf et al.
# Submitted via: GXTranscoder 2.0.1939
#
DISCID=8b0d340c
DTITLE=John C Marshall - Same old story
DYEAR=1991
DGENRE=Blues
TTITLE0=Same old Story
TTITLE1=Get myself together
TTITLE2=Feel like making Love
TTITLE3=Just the 2 of us
TTITLE4=BJ's Theme
TTITLE5=50 Ways to leave your Lover
TTITLE6=Tobacco Road
TTITLE7=Tough Talk
TTITLE8=Girl Talk
TTITLE9=I gotta know
TTITLE10=Masquerade
TTITLE11=Tin Pan Alley
EXTD=
EXTT0=
EXTT1=
EXTT2=
EXTT3=
EXTT4=
EXTT5=
EXTT6=
EXTT7=
EXTT8=
EXTT9=
EXTT10=
EXTT11=
PLAYORDER=
